<?xml version="1.0" encoding="utf-8"?>
<svg xmlns="http://www.w3.org/2000/svg" viewBox="220.289 142.189 64.941 54.754">
  <g id="layer1" transform="matrix(1, 0, 0, 1, -84.528862, -360.082916)">
    <rect style="opacity: 1; fill-opacity: 1; stroke: none;" id="rect2987" width="15" height="5" x="315" y="502.36218"/>
    <rect style="opacity: 1; fill-opacity: 1; stroke: none;" id="rect2989" width="25" height="5" x="310" y="507.36218"/>
    <rect style="opacity: 1; fill-opacity: 1; stroke: none;" id="rect2991" width="35" height="5" x="305" y="512.36218"/>
    <rect style="opacity: 1; fill-opacity: 1; stroke: none;" id="rect2993" width="30" height="5" x="340" y="512.36218"/>
    <rect style="opacity: 1; fill-opacity: 1; stroke: none;" id="rect2995" width="15" height="5" x="345" y="502.36218"/>
    <rect style="opacity: 1; fill-opacity: 1; stroke: none;" id="rect2997" width="25" height="5" x="340" y="507.36218"/>
    <rect style="opacity: 1; fill-opacity: 1; stroke: none;" id="rect2999" width="35" height="5" x="305" y="517.36218"/>
    <rect style="opacity: 1; fill-opacity: 1; stroke: none;" id="rect3001" width="30" height="5" x="340" y="517.36218"/>
    <rect style="opacity: 1; fill-opacity: 1; stroke: none;" id="rect3003" width="65" height="5" x="305" y="522.36218"/>
    <rect style="opacity: 1; fill-opacity: 1; stroke: none;" id="rect3005" width="55" height="5" x="310" y="527.36218"/>
    <rect style="opacity: 1; fill-opacity: 1; stroke: none;" id="rect3013" width="45" height="5" x="315" y="532.36218"/>
    <rect style="opacity: 1; fill-opacity: 1; stroke: none;" id="rect3015" width="35" height="5" x="320" y="537.36218"/>
    <rect style="opacity: 1; fill-opacity: 1; stroke: none;" id="rect3017" width="25" height="5" x="325" y="542.36218"/>
    <rect style="opacity: 1; fill-opacity: 1; stroke: none;" id="rect3019" width="15" height="5" x="330" y="547.36218"/>
    <rect style="opacity: 1; fill-opacity: 1; stroke: none;" id="rect3021" width="5" height="5" x="335" y="552.36218"/>
  </g>
</svg>